<svg xmlns="http://www.w3.org/2000/svg" width="204" height="204" style="fill:none">
	<style>
		path {
		fill: #89774c;
		}
		@media (prefers-color-scheme: dark) {
		path {
		fill: #fcfaea;
		}
		}
	</style>
	<path
		d="M31.8 0A31.8 31.8 0 0 0 0 31.8v140.4A31.8 31.8 0 0 0 31.8 204h140.4a31.8 31.8 0 0 0 31.8-31.8V31.8A31.8 31.8 0 0 0 172.2 0H31.8zM57 47.4a7.5 7.5 0 0 1 5.3 2.2l30 30a7.5 7.5 0 0 1 0 10.6l-24.7 24.7 24.7 24.7a7.5 7.5 0 0 1 0 10.6 7.5 7.5 0 0 1-10.6 0L57 125.5l-24.7 24.7a7.5 7.5 0 0 1-10.6 0 7.5 7.5 0 0 1 0-10.6l24.7-24.7-24.7-24.7a7.5 7.5 0 0 1 0-10.6l30-30a7.5 7.5 0 0 1 5.3-2.2zm59.7 0a7.5 7.5 0 0 1 3.7.8L147 61.5l26.6-13.3a7.5 7.5 0 0 1 3.8-.8 7.5 7.5 0 0 1 2 .3 7.5 7.5 0 0 1 4.3 3.8 7.5 7.5 0 0 1-3.3 10l-30 15a7.5 7.5 0 0 1-6.8 0L124.5 67v65.7l19.1-9.5a7.5 7.5 0 0 1 6.8 0l30 15a7.5 7.5 0 0 1 3.3 10 7.5 7.5 0 0 1-10 3.4L147 138.2l-26.6 13.4a7.5 7.5 0 0 1-10.9-6.7v-90a7.5 7.5 0 0 1 7.2-7.5zM57 65.4 37.6 85 57 104.3l19.4-19.4L57 65.5z"
		style="fill-opacity:1;stroke:none;stroke-width:1.51691;stroke-linejoin:round" />
</svg>